<svg xmlns="http://www.w3.org/2000/svg" width="97.27" height="95.735" viewBox="0 0 25.735903 25.329885"><path d="M12.044 24.661c-.692-.36-1.257-.77-1.257-.913 0-.34 4.944-.344 5.153-.004.122.196-2.217 1.641-2.565 1.584-.04-.007-.64-.306-1.331-.666zM9.912 22.79c-.468-.469.415-.625 3.536-.625 2.868 0 3.424.065 3.424.397s-.553.397-3.395.397c-1.868 0-3.472-.076-3.565-.17zm-.183-1.55c0-.357.49-.403 3.638-.339 2.2.044 3.638.178 3.638.338 0 .16-1.438.294-3.638.338-3.148.064-3.638.018-3.638-.338zm-.147-1.215c-.388-.628.457-.783 3.869-.712 3.133.065 3.557.128 3.636.537.081.423-.23.463-3.62.463-2.384 0-3.77-.103-3.885-.288zm-.515-1.35c-.29-.166-.589-.377-.661-.47-.073-.094-.49-.315-.926-.491-1.189-.48-2.565-3.344-2.565-5.338 0-.963.446-2.659.94-3.572.237-.437.432-.94.432-1.119.001-.178.33-.534.73-.791.4-.257.958-.677 1.24-.932.282-.256.729-.466.992-.466.264 0 .718-.238 1.009-.529.672-.672 1.897-.68 2.498-.017.419.463.454 1.096.371 6.638l-.091 6.126-.742.638c-.813.698-2.301.847-3.227.322zm2.861-.487c.669-.526.685-.618.763-4.234.044-2.033-.026-3.731-.156-3.774-.13-.043-.088-.356.094-.696.454-.849.259-4.197-.264-4.528-.592-.375-1.352-.3-1.888.185-.936.847-.338 2.439.804 2.14.384-.1.467-.016.366.371-.127.487-.154.488-.959.02-.545-.317-.856-.725-.91-1.196-.047-.393-.229-.715-.405-.715-.499 0-1.497.784-1.497 1.176 0 .194-.203.336-.451.316-.256-.02-.612.29-.82.716-.51 1.04.057 2.573 1.084 2.934.986.347 1.516-.151 1.015-.954-.31-.495-.299-.54.094-.39.245.094.578.17.74.17.207 0 .2.097-.021.318-.477.477-.383 1.217.194 1.526.696.372.672.38 1.728-.548 1.014-.89 1.317-.686.34.229-.646.605-1.821 1.124-2.53 1.118-.357-.003-.373-.05-.082-.235.562-.356.095-.82-.826-.82-.875 0-2.052-.874-2.052-1.523 0-.205-.149-.322-.33-.26-.183.062-.334.459-.338.882-.004.423-.156 1.037-.34 1.364-.347.619-.075 1.54.585 1.98.434.29 1.865.243 2.18-.073.192-.191.38-.15.615.133.433.521 1.32.525 1.7.007.258-.354.33-.344.592.076.269.431.183.482-.893.53-.654.028-1.305-.02-1.446-.108-.142-.087-.901-.174-1.688-.194-1.567-.039-1.732.171-.934 1.187.274.348.542.856.596 1.129.054.273.366.674.693.89.584.387.595.375.595-.654 0-.749.166-1.195.578-1.554l.577-.504-.445.654c-1.485 2.184 1.244 4.56 3.342 2.91zm-2.577-1.201c-.63-.63-.498-.794.18-.223.327.275.644.532.705.57.06.038-.02.069-.18.069s-.477-.187-.705-.416zm.642-1.142c0-.29.767-.939.925-.781.065.065-.117.319-.404.564-.286.246-.52.343-.52.217zm-3.175-.691c.181-.219.449-.397.594-.397.148 0 .12.175-.065.397-.18.218-.448.397-.594.397-.147 0-.119-.176.065-.397zm-.534-2.652c-.487-.587-.21-.654.336-.082.254.267.358.485.23.485-.127 0-.382-.182-.566-.403zm1.063-4.2c0-.202.196-.443.435-.534.604-.232.618-.102.05.44-.369.353-.485.376-.485.095zm7.276 10.383c-1.156-.633-1.19-.844-1.19-7.365 0-4.506.088-6.335.317-6.564.503-.504 1.925-.381 2.46.211.264.291.713.53.997.53.795 0 3.105 2.055 3.105 2.761 0 .328.239.812.53 1.076.292.264.543.788.558 1.165.095 2.346-.028 3.774-.383 4.433-.222.413-.573 1.11-.78 1.55-.254.54-.906 1.076-2.007 1.654-1.694.888-2.705 1.042-3.607.549zm3.04-.618c.728-.659.89-1.672.39-2.435-.236-.361-.37-.716-.297-.789.284-.284 1.024 1.27.904 1.899-.083.431-.007.66.218.66.394 0 1.207-1.048 1.032-1.33-.063-.102.12-.399.408-.66.975-.881.68-1.32-.866-1.285-.764.017-1.568.103-1.786.192-.218.088-.824.134-1.346.1-.759-.047-.925-.152-.829-.522.147-.568.478-.6.683-.066.202.526.935.504 1.544-.047.375-.34.562-.37.801-.132.484.484 1.737.367 2.322-.218.631-.631.689-1.655.12-2.127-.294-.244-.323-.393-.104-.529.334-.206.098-1.313-.28-1.313-.126 0-.302.228-.39.505-.234.737-.831 1.149-1.94 1.336-.704.12-.967.292-.941.618.02.248-.061.452-.181.452-.6 0-1.8-.65-2.568-1.391l-.86-.83v3.636c0 3.554.016 3.651.682 4.317.574.574.849.66 1.74.54.583-.078 1.277-.34 1.544-.58zm-.921-1.195c.264-.292.537-.473.607-.403.178.177-.482.934-.815.934-.15 0-.057-.24.208-.531zm-.794-1.32c-.264-.292-.358-.53-.207-.53.333 0 .992.756.815.934-.07.07-.344-.112-.608-.404zm3.192-.417c-.28-.205-.45-.432-.377-.505.073-.073.362.035.642.24s.45.432.377.505c-.073.073-.362-.035-.642-.24zm.643-2.76c.29-.29.593-.529.67-.529.078 0 .015.239-.141.53-.156.29-.458.529-.67.529-.294 0-.26-.13.14-.53zm-2.668-1.281c.184-.344.157-.638-.092-.993-.313-.448-.288-.507.227-.539.494-.03.563.078.468.728-.094.64-.02.763.46.763.854 0 1.87-1.152 1.87-2.122 0-1.065-.467-1.928-.943-1.745-.215.082-.503-.104-.68-.443-.632-1.2-1.323-1.284-1.728-.211-.165.438-.675.966-1.182 1.224-.49.25-.803.36-.695.246.107-.114.057-.375-.113-.58-.255-.307-.194-.343.353-.205 1.429.358 1.815-1.875.41-2.367-1.25-.437-1.628.03-1.72 2.124-.1 2.287.022 2.761.977 3.783.88.941 1.981 1.097 2.388.337zm1.382-2.974c-.426-.345-.5-.507-.231-.507.396 0 1.153.718.96.91-.058.056-.386-.125-.73-.403zm5.056 8.222c-1.133-.509-1.472-1.204-.728-1.49.546-.209 2.91 1.003 2.91 1.492 0 .577-.893.576-2.182-.003zm1.985-.064c-.061-.181-.662-.535-1.335-.785-1.604-.595-1.938-.11-.404.586 1.326.601 1.894.667 1.739.2zM.768 15.99c-.357-.43-.176-.635.99-1.123 1.286-.539 2.15-.488 2.15.127 0 .337-.347.639-1.064.926-1.295.518-1.694.532-2.077.07zm1.917-.31c.977-.408 1.285-.922.553-.922-.651 0-2.24.741-2.24 1.045 0 .388.564.347 1.687-.123zM1.659 7.717C.423 7.266-.197 6.724.056 6.316c.26-.42.918-.35 2.218.24.79.359 1.118.658 1.059.965-.118.61-.439.647-1.674.196zm1.455-.348c0-.405-2.403-1.163-2.711-.854-.204.203-.066.37.485.585l1.3.508c.554.217.926.122.926-.24zm19.175.497c-.278-.45.336-.959 1.579-1.307 1.94-.543 2.502.425.672 1.158-1.228.491-2.008.543-2.25.15zm2.18-.391c.717-.3.887-.48.665-.702-.223-.223-.608-.182-1.502.16-.662.253-1.203.569-1.203.702 0 .367.958.292 2.04-.16zm-8.504-4.33c-.19-.308.35-1.894.837-2.46.466-.54 1.129-.344 1.129.333 0 .856-.865 2.362-1.357 2.362-.255 0-.53-.106-.609-.234zm1.4-1.168c.271-.712.3-1.085.1-1.286-.29-.29-.834.519-1.246 1.853-.336 1.088.715.568 1.147-.567zm-9.377.483c-.59-.9-.637-2.342-.08-2.457C8.4-.098 9.586 2.15 9.356 2.75c-.22.573-.896.429-1.368-.29zm1.063-.205C8.74 1.245 8.141.205 7.87.205c-.385 0-.313.661.188 1.71.503 1.055 1.298 1.327.993.34z"/></svg>